<svg width="58" height="58" viewBox="0 0 58 58" fill="none" xmlns="http://www.w3.org/2000/svg">
<path fill-rule="evenodd" clip-rule="evenodd" d="M0 28.722C0 12.8593 12.8593 0 28.722 0C44.5846 0 57.4439 12.8593 57.4439 28.722C57.4439 44.5846 44.5846 57.4439 28.722 57.4439C12.8593 57.4439 0 44.5846 0 28.722ZM28.722 14.361C36.6205 14.361 43.0829 20.8234 43.0829 28.722C43.0829 35.9024 37.8771 42.0059 30.6966 43.0829V32.8507H34.1073L34.8254 28.722H30.8761V26.0293C30.8761 24.9522 31.4146 23.8751 33.2098 23.8751H35.0049V20.2849C35.0049 20.2849 33.3893 19.9259 31.7737 19.9259C28.5424 19.9259 26.3883 21.9005 26.3883 25.4907V28.722H22.798V32.8507H26.3883V42.9034C19.5668 41.8263 14.361 35.9024 14.361 28.722C14.361 20.8234 20.8234 14.361 28.722 14.361Z" fill="black"/>
</svg>
