<svg width="58" height="58" viewBox="0 0 58 58" fill="none" xmlns="http://www.w3.org/2000/svg">
<path d="M28.722 33.7483C26.0293 33.7483 23.6956 31.5941 23.6956 28.7219C23.6956 26.0293 25.8498 23.6956 28.722 23.6956C31.4146 23.6956 33.7483 25.8498 33.7483 28.7219C33.7483 31.4146 31.4146 33.7483 28.722 33.7483Z" fill="black"/>
<path fill-rule="evenodd" clip-rule="evenodd" d="M34.8254 16.5151H22.6185C21.1824 16.6946 20.4644 16.8741 19.9259 17.0537C19.2078 17.2332 18.6693 17.5922 18.1307 18.1307C17.7046 18.5569 17.5033 18.983 17.2599 19.4981C17.1958 19.6338 17.1285 19.7761 17.0537 19.9258C17.0259 20.0092 16.9938 20.0968 16.9595 20.1907C16.7717 20.7037 16.5151 21.4046 16.5151 22.6185V34.8254C16.6946 36.2615 16.8741 36.9795 17.0537 37.518C17.2332 38.2361 17.5922 38.7746 18.1307 39.3132C18.5569 39.7393 18.983 39.9406 19.4981 40.184C19.6339 40.2482 19.776 40.3153 19.9259 40.3902C20.0092 40.418 20.0968 40.4501 20.1907 40.4844C20.7037 40.6722 21.4046 40.9288 22.6185 40.9288H34.8254C36.2615 40.7493 36.9795 40.5698 37.5181 40.3902C38.2361 40.2107 38.7746 39.8517 39.3132 39.3132C39.7393 38.887 39.9406 38.4609 40.184 37.9458C40.2482 37.81 40.3153 37.6679 40.3902 37.518C40.418 37.4347 40.4501 37.3471 40.4845 37.2532C40.6722 36.7402 40.9288 36.0393 40.9288 34.8254V22.6185C40.7493 21.1824 40.5698 20.4644 40.3902 19.9258C40.2107 19.2078 39.8517 18.6693 39.3132 18.1307C38.887 17.7046 38.4609 17.5033 37.9458 17.2599C37.8102 17.1958 37.6677 17.1285 37.5181 17.0537C37.4347 17.0259 37.3471 16.9938 37.2532 16.9594C36.7402 16.7717 36.0393 16.5151 34.8254 16.5151ZM28.722 21.0029C24.4137 21.0029 21.0029 24.4137 21.0029 28.7219C21.0029 33.0302 24.4137 36.441 28.722 36.441C33.0302 36.441 36.441 33.0302 36.441 28.7219C36.441 24.4137 33.0302 21.0029 28.722 21.0029ZM38.4156 20.8234C38.4156 21.8148 37.6119 22.6185 36.6205 22.6185C35.6291 22.6185 34.8254 21.8148 34.8254 20.8234C34.8254 19.832 35.6291 19.0283 36.6205 19.0283C37.6119 19.0283 38.4156 19.832 38.4156 20.8234Z" fill="black"/>
<path fill-rule="evenodd" clip-rule="evenodd" d="M0 28.722C0 12.8593 12.8593 0 28.722 0C44.5846 0 57.4439 12.8593 57.4439 28.722C57.4439 44.5846 44.5846 57.4439 28.722 57.4439C12.8593 57.4439 0 44.5846 0 28.722ZM22.6185 13.8224H34.8254C36.441 14.0019 37.5181 14.1815 38.4156 14.5405C39.4927 15.079 40.2107 15.438 41.1083 16.3356C42.0059 17.2332 42.5444 18.1307 42.9034 19.0283C43.2624 19.9259 43.6215 21.0029 43.6215 22.6185V34.8254C43.442 36.441 43.2624 37.518 42.9034 38.4156C42.3649 39.4927 42.0059 40.2107 41.1083 41.1083C40.2107 42.0059 39.3132 42.5444 38.4156 42.9034C37.5181 43.2624 36.441 43.6215 34.8254 43.6215H22.6185C21.0029 43.4419 19.9259 43.2624 19.0283 42.9034C17.9512 42.3649 17.2332 42.0059 16.3356 41.1083C15.4381 40.2107 14.8995 39.3132 14.5405 38.4156C14.1815 37.518 13.8224 36.441 13.8224 34.8254V22.6185C14.002 21.0029 14.1815 19.9259 14.5405 19.0283C15.079 17.9512 15.4381 17.2332 16.3356 16.3356C17.2332 15.438 18.1307 14.8995 19.0283 14.5405C19.9259 14.1815 21.0029 13.8224 22.6185 13.8224Z" fill="black"/>
</svg>
