<svg width="58" height="58" viewBox="0 0 58 58" fill="none" xmlns="http://www.w3.org/2000/svg">
<path fill-rule="evenodd" clip-rule="evenodd" d="M0 28.722C0 12.8593 12.8593 0 28.722 0C44.5846 0 57.4439 12.8593 57.4439 28.722C57.4439 44.5846 44.5846 57.4439 28.722 57.4439C12.8593 57.4439 0 44.5846 0 28.722ZM39.6722 20.6439C40.9288 20.4644 42.0059 20.2849 43.0829 19.7463C42.3649 21.0029 41.2878 22.08 40.0312 22.798C40.3902 31.2351 34.2868 40.3902 23.3366 40.3902C20.1054 40.3902 17.0537 39.3132 14.361 37.6976C17.4127 38.0566 20.6439 37.159 22.798 35.5434C20.1054 35.5434 17.9512 33.7483 17.2332 31.4146C18.1307 31.5941 19.0283 31.4146 19.9259 31.2351C17.2332 30.5171 15.2585 28.0039 15.2585 25.3112C16.1561 25.6702 17.0537 26.0293 17.9512 26.0293C15.438 24.2341 14.5405 20.8234 16.1561 18.1307C19.2078 21.721 23.5161 24.0546 28.3629 24.2341C27.4654 20.6439 30.3376 17.0537 34.1073 17.0537C35.7229 17.0537 37.3385 17.7717 38.4156 18.8488C39.8517 18.4898 41.1083 18.1307 42.1854 17.4127C41.8263 18.8488 40.9288 19.9259 39.6722 20.6439Z" fill="black"/>
</svg>
